<svg xmlns="http://www.w3.org/2000/svg" id="Layer_1" data-name="Layer 1" viewBox="0 0 512 512"><defs><style>.cls-1{fill:#ffc724}.cls-2{fill:#f58b1f}.cls-3{fill:#ee3e30}.cls-4{fill:#931a3d}.cls-5{fill:#c41e51}</style></defs><title>Artboard 4</title><g id="_Group_" data-name="&lt;Group&gt;"><g id="_Group_2" data-name="&lt;Group&gt;"><g id="_Group_3" data-name="&lt;Group&gt;"><polygon id="_Path_" points="108.2 85.33 256 0 256 170.67 108.2 85.33" class="cls-1" data-name="&lt;Path&gt;"/><polyline id="_Path_2" points="403.8 85.33 256 0 256 170.67 403.8 85.33" class="cls-2" data-name="&lt;Path&gt;"/><polyline id="_Path_3" points="403.8 256 403.8 85.33 256 170.67" class="cls-3" data-name="&lt;Path&gt;"/><polygon id="_Path_4" points="108.2 256 256 341.33 256 170.67 108.2 256" class="cls-4" data-name="&lt;Path&gt;"/><polygon id="_Path_5" points="256 170.67 256 341.33 403.8 256 256 170.67" class="cls-5" data-name="&lt;Path&gt;"/></g><g id="_Group_4" data-name="&lt;Group&gt;"><polygon id="_Path_6" points="108.2 256 108.2 426.67 256 341.33 108.2 256" class="cls-3" data-name="&lt;Path&gt;"/><polygon id="_Path_7" points="108.2 426.67 256 512 256 341.33 108.2 426.67" class="cls-2" data-name="&lt;Path&gt;"/><polygon id="_Path_8" points="256 341.33 256 512 403.8 426.67 256 341.33" class="cls-1" data-name="&lt;Path&gt;"/></g></g></g></svg>