<svg xmlns="http://www.w3.org/2000/svg" xmlns:xlink="http://www.w3.org/1999/xlink" id="Layer_1" x="0" y="0" version="1.1" viewBox="0 0 512 512" xml:space="preserve" style="enable-background:new 0 0 512 512"><style type="text/css">.st0{fill:#ffc724}.st1{fill:#ee3e30}.st2{fill:#931a3d}</style><title>Artboard 1</title><g><path d="M450.5,158.7c-0.1,53.7-43.6,97.1-97.3,97.3v0c-53.7-0.1-97.1-43.5-97.2-97.2c0.1-53.7,43.6-97.1,97.2-97.2 h97.3V158.7z" class="st0"/><path d="M158.7,256c-53.7-0.1-97.1-43.6-97.3-97.3V61.5l97.3,0c53.7,0.1,97.2,43.5,97.3,97.2 C255.9,212.4,212.5,255.9,158.7,256L158.7,256z" class="st1"/><path d="M450.5,353.2c-0.1-53.7-43.6-97.1-97.3-97.2v0c-53.7,0.1-97.1,43.5-97.2,97.2c0.1,53.7,43.6,97.2,97.2,97.2 h97.3V353.2z" class="st1"/><path d="M158.7,256c-53.7,0.1-97.1,43.6-97.3,97.2v97.3l97.3,0c53.7-0.1,97.2-43.6,97.3-97.2 C255.9,299.6,212.5,256.1,158.7,256L158.7,256z" class="st2"/></g></svg>